<?xml version="1.0" encoding="utf-8" ?><svg xmlns="http://www.w3.org/2000/svg" xmlns:xlink="http://www.w3.org/1999/xlink" width="309" height="258" viewBox="0 0 309 258"><clipPath id="cl_3"><rect width="309.00003" height="257.83606"/></clipPath><g clip-path="url(#cl_3)"><path fill="#FDFDFC" transform="scale(0.252039 0.252039)" d="M-1378.82 -2720.57L2649 -2720.57L2649 1308.63L-1378.82 1308.63L-1378.82 -2720.57Z"/><path fill="#068550" transform="scale(0.252039 0.252039)" d="M362.659 299.893C393.595 298.984 414.686 310.533 415.441 343.424C418.037 436.43 415.268 531.541 415.598 624.409C415.783 677.029 349.836 683.23 325.523 656.423C274.149 599.774 230.952 527.445 181.576 469.533C179.416 524.045 184.109 588.898 180.368 641.097C170.177 658.327 164.457 662.498 145.742 668.239C128.286 668.935 112.174 668.101 99.2374 654.601C85.5804 640.345 87.4371 613.526 87.5826 594.387C88.2159 512.631 87.1853 430.945 88.3574 349.172C88.8059 317.859 111.62 298.929 142.564 301.538C177.253 304.918 204.633 351.71 224.887 377.884L322.286 504.135L321.81 397.696C321.503 355.059 309.872 309.168 362.659 299.893Z"/><path fill="#F56929" transform="scale(0.252039 0.252039)" d="M951.826 731.919C956.475 732.057 963.307 731.951 967.268 734.882C1030 781.253 1094.79 825.606 1155.51 874.574C1177.84 892.584 1153.28 929.555 1125.05 911.05C1104.93 897.86 1085.61 883.258 1066.06 868.944C1030.51 843.297 995.152 817.375 959.995 791.189C936.088 822.139 907.134 849.903 880.591 878.627C863.371 897.266 847.055 918.29 828.021 935.008C822.751 939.64 812.697 947.773 805.144 947.639C789.564 947.367 646.396 817.17 622.453 796.497C590.065 822.875 472.055 933.301 446.794 943.571C422.946 941.151 319.989 833.731 293.324 807.935L276.91 791.755C251.622 809.237 128.691 913.666 113.724 915.7C107.6 916.535 102.152 915.209 97.251 911.356C91.4531 906.804 87.3938 899.548 86.7881 892.182C86.1036 883.864 89.6279 878.407 95.056 872.642C122.138 843.887 158.892 819.814 189.875 795.013C212.606 776.819 236.581 753.167 261.55 738.372C266.805 735.26 271.505 734.39 277.559 734.292C282.79 734.201 286.783 734.434 291.224 737.558C307.736 749.173 322.679 766.758 337.469 780.679C373.735 814.526 409.745 848.64 445.5 883.022C486.392 852.449 586.521 750.054 625.718 734.009C647.666 745.404 685.305 782.497 705.857 800.856C738.123 829.986 770.9 858.548 804.169 886.524C837.312 855.101 871.623 810.855 904.703 777.889C919.713 762.929 934.094 743.893 951.826 731.919Z"/><path fill="#068550" transform="scale(0.252039 0.252039)" d="M979.78 400.305C1013.87 398.046 1038.28 400.706 1063.95 426.081C1081.53 408.225 1106.35 394.898 1131.96 408.044C1151.09 417.858 1148.82 443.851 1148.73 462.395C1148.53 517.793 1149.4 571.086 1147.97 626.66C1147.3 652.394 1136.47 667.538 1108.07 669.353C1091.41 670.419 1077.68 660.122 1064.4 650.914L1057.51 656.718C1045.37 664.332 1031.92 669.64 1017.85 672.37C984.261 679.115 949.375 671.855 921.259 652.272C891.385 631.059 871.36 598.664 865.735 562.449C852.511 481.432 897.21 412.546 979.78 400.305Z"/><path fill="#FDFDFC" transform="scale(0.252039 0.252039)" d="M991.888 476.844C1024.76 468.656 1058.03 488.723 1066.13 521.629C1074.23 554.536 1054.09 587.765 1021.17 595.784C988.375 603.771 955.307 583.704 947.235 550.924C939.164 518.139 959.138 485.005 991.888 476.844Z"/><path fill="#068550" transform="scale(0.252039 0.252039)" d="M504.458 410.008C515.861 410.311 527.174 411.633 537.216 417.515C544.339 421.686 548.76 427.305 550.676 435.355C557.312 463.249 555.955 653.405 551.16 684.635C549.052 698.375 544.682 709.046 537.448 720.847C521.647 746.619 499.75 762.347 470.623 769.445C458.839 770.287 448.136 770.685 437.574 764.55C429.44 759.828 424.37 752.116 422.179 743.054C410.524 694.873 457.131 700.366 465.258 665.449C477.184 614.23 453.304 457.056 475.788 424.905C482.793 414.887 493.103 412.325 504.458 410.008Z"/><path fill="#068550" transform="scale(0.252039 0.252039)" d="M773.957 295.754C803.449 294.121 823.219 298.914 824.06 332.552C825.689 397.444 824.933 463.084 824.717 528.035C824.591 564.416 827.176 607.899 823.482 643.45C814.986 656.871 812.083 659.437 797.651 665.929C785.611 667.771 773.036 668.243 761.495 663.73C754.344 660.936 747.327 655.687 744.582 648.262C738.005 630.457 739.787 368.252 741.348 336.227C741.699 329.01 741.911 320.283 745.612 313.928C752.087 302.805 762.113 299 773.957 295.754Z"/><path fill="#F56929" transform="scale(0.252039 0.252039)" d="M954.292 46.4233C1014.95 47.2651 1067.79 67.5962 1108.26 115.176C1134.14 148.298 1157.86 190.082 1155.23 233.691C1153.57 261.026 1131.61 274.518 1112.43 249.087C1108.34 243.657 1106.19 220.938 1104.56 212.447C1101.53 196.302 1095.52 180.866 1086.83 166.929C1061.69 125.811 1025.51 106.542 980.174 95.592C912.44 87.5139 843.44 126.574 821.173 193.312C817.318 204.337 815.792 227.159 809.888 236.886C797.258 257.689 764.878 247.289 765.472 222.583C766.424 183.188 786.013 141.979 811.977 113.004C850.985 69.4575 897.135 49.7166 954.292 46.4233Z"/><path fill="#068550" transform="scale(0.252039 0.252039)" d="M629.018 411.763C638.6 410.948 649.334 410.327 658.865 412.042C667.144 413.529 677.934 418.597 682.21 426.29C689.844 440.03 691.551 626.058 684.932 644.449C680.377 657.1 673.135 662.683 661.48 668.668C629.549 671.497 603.281 665.288 603.16 627.962C602.947 565.014 599.281 497.517 602.656 435.017C611.616 420.396 613.371 418.684 629.018 411.763Z"/><path fill="#F56929" transform="scale(0.252039 0.252039)" d="M503.526 294.243C529.778 291.087 553.677 309.655 557.119 335.881C560.561 362.106 542.262 386.214 516.085 389.945C501.988 391.955 487.725 387.631 477.113 378.136C466.501 368.637 460.62 354.937 461.053 340.701C461.777 316.836 479.831 297.088 503.526 294.243Z"/><path fill="#F56929" transform="scale(0.252039 0.252039)" d="M634.179 296.505C650.943 293.098 668.242 298.957 679.48 311.855C690.722 324.749 694.171 342.692 688.515 358.84C682.855 374.984 668.966 386.848 652.135 389.901C638.021 392.463 623.507 388.512 612.635 379.151C601.763 369.791 595.698 356.019 596.13 341.673C596.795 319.606 612.552 300.901 634.179 296.505Z"/></g></svg>