<?xml version="1.0" encoding="utf-8"?>
<!-- Generator: Adobe Illustrator 27.5.0, SVG Export Plug-In . SVG Version: 6.00 Build 0)  -->
<svg version="1.1" id="Ebene_1" xmlns="http://www.w3.org/2000/svg" xmlns:xlink="http://www.w3.org/1999/xlink" x="0px" y="0px"
	 viewBox="0 0 1920 811" style="enable-background:new 0 0 1920 811;" xml:space="preserve">
<style type="text/css">
	.st0{fill:#002147;}
	.st1{fill:#247066;}
	.st2{fill:#00FF91;}
	.st3{fill:#FF00FF;}
	.st4{fill:#0083F9;}
	.st5{fill:none;stroke:#FF00FF;stroke-miterlimit:10;}
</style>
	<g>
	<g>
		<path class="st1" d="M362.17,433.52c-36.22-20.91-42.6-52.59-19.05-77.11c1.77-1.84,0.65-4.91-1.9-5.2
			c-21.16-2.4-41.37-8.33-57.77-17.8l-40.3-23.27c-0.96-0.55-2.14-0.55-3.09,0l-27.22,15.72c-2.06,1.19-2.06,4.17,0,5.36
			l42.23,24.38c2.06,1.19,2.06,4.17,0,5.36l-42.23,24.38c-2.06,1.19-2.06,4.17,0,5.36l42.23,24.38c2.06,1.19,2.06,4.17,0,5.36
			l-42.23,24.38c-2.06,1.19-2.06,4.17,0,5.36l42.23,24.38c2.06,1.19,2.06,4.17,0,5.36l-42.23,24.38c-2.06,1.19-2.06,4.17,0,5.36
			l203.4,117.44c0.96,0.55,2.14,0.55,3.09,0l134.42-77.61c2.06-1.19,2.06-4.17,0-5.36L362.17,433.52L362.17,433.52z"/>
		<path class="st2" d="M579.2,356.36l42.23-24.38c2.06-1.19,2.06-4.17,0-5.36l-203.4-117.44c-0.96-0.55-2.14-0.55-3.09,0
			l-136.46,78.79c-2.06,1.19-2.06,4.17,0,5.36l37.21,21.48c24.43,14.11,63.22,14.95,89.11,2.49c0.08-0.04,0.15-0.08,0.23-0.12
			l11.85-6.84c0.8-0.46,1.64-0.88,2.52-1.26c0.1-0.05,0.21-0.1,0.3-0.15l2.22-1.28c2.65-1.53,1.7-5.57-1.35-5.77l-42.15-2.71
			c-12.55-0.81-21.67-7.33-20.34-14.58c1.32-7.24,12.57-12.46,25.12-11.65l99.82,6.42c0.15,0.01,0.29,0.02,0.44,0.04
			c0.16,0.01,0.32,0.02,0.48,0.04c0.17,0.02,0.34,0.04,0.52,0.05c0.18,0.02,0.36,0.04,0.53,0.06c0.05,0.01,0.09,0.01,0.14,0.02
			c0.53,0.07,1.06,0.14,1.59,0.22c0.07,0.01,0.15,0.02,0.22,0.04c0.22,0.04,0.44,0.08,0.66,0.12c0.11,0.02,0.22,0.04,0.32,0.06
			c0.22,0.04,0.43,0.09,0.65,0.13c0.1,0.02,0.21,0.05,0.31,0.07c0.22,0.05,0.43,0.1,0.65,0.15c0.09,0.03,0.19,0.05,0.28,0.07
			c0.22,0.06,0.44,0.11,0.66,0.18c0.08,0.02,0.15,0.05,0.24,0.07c0.23,0.07,0.46,0.13,0.68,0.2c0.03,0.01,0.06,0.02,0.09,0.03
			c0.72,0.23,1.43,0.48,2.11,0.75c0.11,0.04,0.22,0.09,0.33,0.13c0.15,0.07,0.31,0.13,0.46,0.2c0.14,0.06,0.27,0.12,0.41,0.19
			c0.13,0.06,0.26,0.12,0.39,0.19c0.17,0.08,0.33,0.16,0.49,0.24c0.1,0.05,0.2,0.1,0.3,0.15c0.26,0.14,0.52,0.28,0.77,0.42l0,0l0,0
			c0.25,0.14,0.5,0.29,0.73,0.44c0.09,0.06,0.18,0.12,0.27,0.18c0.14,0.09,0.28,0.19,0.42,0.28c0.11,0.08,0.22,0.15,0.32,0.23
			c0.11,0.08,0.21,0.15,0.31,0.23c0.12,0.09,0.23,0.18,0.35,0.27c0.08,0.06,0.15,0.12,0.22,0.19c0.48,0.4,0.92,0.81,1.32,1.23
			c0.02,0.02,0.03,0.03,0.05,0.05c0.12,0.13,0.24,0.26,0.36,0.4c0.04,0.04,0.08,0.09,0.11,0.13c0.11,0.13,0.21,0.25,0.3,0.38
			c0.04,0.05,0.08,0.11,0.12,0.16c0.09,0.12,0.18,0.25,0.27,0.38c0.04,0.06,0.08,0.12,0.11,0.18c0.08,0.12,0.16,0.25,0.24,0.38
			c0.04,0.06,0.07,0.12,0.1,0.18c0.07,0.13,0.14,0.25,0.21,0.38c0.03,0.05,0.05,0.1,0.07,0.15c0.14,0.29,0.26,0.58,0.37,0.87
			c0.01,0.03,0.03,0.06,0.04,0.09c0.04,0.1,0.07,0.21,0.1,0.31c0.03,0.1,0.06,0.19,0.09,0.29c0.03,0.09,0.05,0.19,0.07,0.28
			c0.02,0.08,0.04,0.17,0.06,0.25l11.12,57.63c1.4,7.25-7.64,13.74-20.18,14.5c-7.16,0.43-13.92-1.09-18.66-3.83
			c-3.57-2.06-5.99-4.8-6.59-7.92l-5.01-25.96c-0.4-2.09-2.74-3.15-4.59-2.09l-17.79,10.27c-1.83,1.06-3.72,2.07-5.64,3.04
			l-41.89,24.19c-25.71,14.84-25.57,39.07,0.29,54l196.12,113.23c-0.08,0.09-0.16,0.17-0.24,0.26l31.16-17.99
			c2.06-1.19,2.06-4.17,0-5.36l-42.23-24.38c-2.06-1.19-2.06-4.17,0-5.36l42.23-24.38c2.06-1.19,2.06-4.17,0-5.36l-42.23-24.38
			c-2.06-1.19-2.06-4.17,0-5.36l42.23-24.38c2.06-1.19,2.06-4.17,0-5.36l-42.23-24.38c-2.06-1.19-2.06-4.17,0-5.36L579.2,356.36z"/>
	</g>
		<g>
		<path class="st0" d="M854.16,362.39H824.6c-1.47,0-2.66,1.19-2.66,2.66v88.71c0,16.8,8.4,20.48,18.87,20.48
			c3.68,0,7.12-0.52,9.64-1.03c1.43-0.29,2.82,0.62,3.13,2.04l5.94,27.58c0.29,1.35-0.5,2.71-1.83,3.1
			c-4.75,1.42-12.15,3.11-22.18,3.4c-31.3,0.92-55.46-15.42-55.24-48.68v-95.61c0-1.47-1.19-2.66-2.66-2.66h-19.78
			c-1.47,0-2.66-1.19-2.66-2.66v-26.91c0-1.47,1.19-2.66,2.66-2.66h19.78c1.47,0,2.66-1.19,2.66-2.66v-37.04
			c0-1.47,1.19-2.66,2.66-2.66h36.34c1.47,0,2.66,1.19,2.66,2.66v37.04c0,1.47,1.19,2.66,2.66,2.66h29.55
			c1.47,0,2.66,1.19,2.66,2.66v26.91C856.81,361.2,855.62,362.39,854.16,362.39L854.16,362.39z"/>
			<path class="st0" d="M886.63,457.33c0-39.82,32.79-50.06,67.09-53.74c31.18-3.34,43.73-3.91,43.73-15.88v-0.69
			c0-17.37-10.59-27.27-29.92-27.27s-30.81,9.27-35.51,20.5c-0.47,1.13-1.63,1.82-2.84,1.64l-33.71-4.79
			c-1.65-0.23-2.67-1.91-2.14-3.5c10.1-30.21,37.99-45.73,73.96-45.73c33.72,0,71.81,14.04,71.81,60.76v115.64
			c0,1.47-1.19,2.66-2.66,2.66h-34.73c-1.47,0-2.66-1.19-2.66-2.66v-20.76c0-0.48-0.39-0.86-0.86-0.86l0,0
			c-0.32,0-0.61,0.18-0.76,0.46c-7.7,14.65-24.22,27.39-51.66,27.39C912.07,510.5,886.64,492.09,886.63,457.33L886.63,457.33z
			 M997.56,443.52v-19.23c0-0.66-0.71-1.07-1.29-0.75c-6.97,3.88-26.71,6.38-36.92,7.78c-18.64,2.65-32.57,9.32-32.57,25.32
			s12.43,23.24,29.8,23.24C981.68,479.88,997.56,463.2,997.56,443.52L997.56,443.52z"/>
			<path class="st0" d="M1088.84,271.26h36.35c1.47,0,2.66,1.19,2.66,2.66v84.43c0,0.58,0.47,1.06,1.06,1.06l0,0
			c0.41,0,0.78-0.23,0.96-0.59c6.44-12.75,19.51-30.93,50.22-30.93c40.85,0,72.95,31.99,72.95,90.91s-31.18,91.25-72.84,91.25
			c-29.73,0-43.48-17.3-50.2-30.12c-0.27-0.52-0.8-0.84-1.38-0.84h-0.53c-0.53,0-0.95,0.42-0.95,0.95v24.24
			c0,1.47-1.19,2.66-2.66,2.66h-35.66c-1.47,0-2.66-1.19-2.66-2.66V273.91C1086.18,272.44,1087.37,271.26,1088.84,271.26
			L1088.84,271.26z M1168.58,475.85c27.5,0,42-24.17,42-57.31s-14.27-56.5-42-56.5s-41.54,22.21-41.54,56.5
			S1141.99,475.85,1168.58,475.85z"/>
			<path class="st0" d="M1288.61,282.53c0-12.54,10.82-22.67,24.17-22.67c13.35,0,24.05,10.13,24.05,22.67s-10.81,22.55-24.05,22.55
			C1299.54,305.08,1288.61,294.96,1288.61,282.53L1288.61,282.53z M1294.49,330.17h36.34c1.47,0,2.66,1.19,2.66,2.66v171.44
			c0,1.47-1.19,2.66-2.66,2.66h-36.34c-1.47,0-2.66-1.19-2.66-2.66V332.83C1291.83,331.36,1293.02,330.17,1294.49,330.17z"/>
			<path class="st0" d="M1378.98,566.44l8.21-27.56c0.41-1.38,1.84-2.17,3.23-1.81c16.81,4.43,28.24,2.28,35.59-16.92l2.5-6.69
			c0.69-1.85,0.71-3.88,0.05-5.74l-61.82-174.01c-0.62-1.73,0.67-3.54,2.5-3.54h38.46c1.17,0,2.2,0.76,2.54,1.88l39.9,130.72
			c0.16,0.53,0.64,0.88,1.19,0.88l0,0c0.55,0,1.03-0.36,1.19-0.88l40.01-130.72c0.34-1.12,1.37-1.88,2.54-1.88h38.57
			c1.84,0,3.12,1.82,2.5,3.55l-69.5,194.61c-10.01,28.19-28.77,44.88-61.22,44.88c-9.91,0-18.86-1.57-24.74-3.49
			c-1.37-0.45-2.12-1.9-1.71-3.28L1378.98,566.44z"/>
			<path class="st0" d="M1555.96,457.33c0-39.82,32.79-50.06,67.09-53.74c31.18-3.34,43.73-3.91,43.73-15.88v-0.69
			c0-17.37-10.59-27.27-29.92-27.27c-19.33,0-30.81,9.27-35.51,20.5c-0.47,1.13-1.63,1.82-2.84,1.64l-33.71-4.79
			c-1.65-0.23-2.67-1.91-2.14-3.5c10.1-30.21,37.99-45.73,73.96-45.73c33.72,0,71.81,14.04,71.81,60.76v115.64
			c0,1.47-1.19,2.66-2.66,2.66h-34.73c-1.47,0-2.66-1.19-2.66-2.66v-20.76c0-0.48-0.39-0.86-0.86-0.86l0,0
			c-0.32,0-0.61,0.18-0.76,0.46c-7.7,14.65-24.22,27.39-51.66,27.39C1581.39,510.5,1555.96,492.09,1555.96,457.33L1555.96,457.33z
			 M1666.89,443.52v-19.23c0-0.66-0.71-1.07-1.29-0.75c-6.97,3.88-26.71,6.38-36.92,7.78c-18.64,2.65-32.57,9.32-32.57,25.32
			s12.43,23.24,29.8,23.24C1651.01,479.88,1666.89,463.2,1666.89,443.52z"/>
	</g>
</g>
</svg>
