<svg width="183" height="161" viewBox="0 0 583 561" fill="none" xmlns="http://www.w3.org/2000/svg">
<path d="M443.5 459.5L442.5 460.5V462L441.5 462.5V465L440.5 465.5V468L439.5 468.5V471L438.5 471.5V474L437.5 474.5L436.5 480L434.5 482.5V485L433.5 485.5V488L432.5 488.5V491L431.5 491.5L430.5 497L428.5 499.5V502L427.5 502.5V505L426.5 505.5L425.5 511L423.5 513.5V516L422.5 516.5V519L421.5 519.5V522L420.5 522.5V525L419.5 525.5V528L418.5 528.5L417.5 534L415.5 536.5V539L414.5 539.5V542L413.5 542.5V545L412.5 545.5V548L411.5 548.5V551L409.5 553.5V556L408.5 556.5V558H437L438 557V554.5L439 554V550.5L440 550V547.5L441 547V544.5L442 544V540.5L443 540L443.5 537H467L468.5 538.5V542L469.5 542.5V545L470.5 545.5V549L471.5 549.5V553L472.5 553.5V556L473.5 556.5V558H504V556.5L503 556V553.5L502 553V550.5L501 550V547.5L499 545V542.5L498 542L497 536.5L495 534V531.5L494 531L493 525.5L491 523V520.5L490 520L489 514.5L487 512V509.5L486 509L485 503.5L483 501V498.5L482 498L481 492.5L479 490V487.5L478 487L477 481.5L475 479V476.5L474 476V473.5L473 473V470.5L471 468V465.5L470 465V462.5L469 462V460.5L468 459.5H443.5ZM454.5 488L456.5 488.5V490L457.5 490.5V493L458.5 493.5V497L459.5 497.5V500L460.5 500.5V504L461.5 504.5V507L462.5 507.5V511L463.5 511.5V515L464.5 515.5L464 519.5L446 519V516.5L447 516V513.5L448 513V509.5L449 509V506.5L450 506V502.5L451 502V499.5L452 499V495.5L453 495V492.5L454 492L454.5 488ZM312.5 459.5L311.5 460.5V475L312.5 475.5V542L311.5 542.5V558H339L340 557L339 556L339.5 523H346L347.5 524.5V526L348.5 526.5V528L350.5 530.5V533L351.5 533.5V535L353.5 537.5V540L354.5 540.5V542L356.5 544.5V547L357.5 547.5V549L359.5 551.5V554L360.5 554.5L361.5 558H393L392 557V555.5L391 555V553.5L390 553V551.5L388 550V548.5L387 548L386 544.5L384 543V541.5L383 541V539.5L382 539L381 535.5L379 534L378 530.5L376 529V527.5L375 527L374 523.5L372 522V520.5L371 520V518.5L372.5 517H374L374.5 516H376L376.5 515L380 514L385 509V507.5L386 507V505.5L388 503V499.5L389 499V492.5L390 492V487.5L389 487V480.5L388 480V478.5L387 478V475.5L385 474V472.5L379 466.5L375.5 465.5L374 463.5H371.5L371 462.5H368.5L368 461.5H364.5L364 460.5H358.5L358 459.5H312.5ZM339.5 480H351L351.5 481H354L354.5 482H356L360.5 486.5V489L361.5 489.5L360.5 497L359.5 497.5V499L355 503.5H353.5L351 505.5H348.5L348 506.5H339.5L338 505V497.5L339 497L339.5 480ZM263.5 459.5L262.5 460.5V472L263.5 472.5V506L264.5 506.5V511L263.5 511.5V545L262.5 545.5V558H291V552.5L290 552V518.5L289 518V515.5L290 515V513.5L289 513V500.5L290 500V465.5L291 465V460.5L290 459.5H263.5ZM240 459.5H213.5L212.5 460.5V470L213.5 470.5V493L214.5 493.5V516L215.5 516.5V530L214.5 530.5V533L213.5 533.5V535L209 538.5H206.5L206 539.5H197.5L197 540.5H193.5L194.5 556L195.5 556.5V559L196.5 560H202L202.5 559H214L214.5 558H220L220.5 557L226 556L226.5 555L230 554L232.5 551H234L235 550V548.5L237 547L238 543.5L239 543V539.5L240 539V531.5L241 531V460.5L240 459.5ZM82.5 459.5L81.5 460.5V532L80.5 532.5V558H108V543.5L107 543V526.5L106 526V509.5L105 509V500.5L106.5 499L109.5 501.5V503L112.5 505.5V507L116.5 510.5V512L119.5 514.5V516L122.5 518.5V520L125.5 522.5V524L129.5 527.5V529L132.5 531.5V533L135.5 535.5V537L138.5 539.5V541L141.5 543.5V545L145.5 548.5V550L148.5 552.5V554L151.5 556.5V558H172V486.5L173 486V459.5H145.5V471L146.5 471.5V488L147.5 488.5V505L148.5 505.5V507L147 508.5L146 508V506.5L142 503V501.5L137 497V495.5L133 492V490.5L128 486V484.5L124 481V479.5L120 476V474.5L115 470V468.5L111 465V463.5L107 459.5H82.5ZM380.5 196.5V198L387.5 204.5V206L391.5 209.5V211L393.5 212.5V214L395.5 215.5V217L398.5 220L406 221L406.5 222H409L409.5 223L417 224L417.5 225H420L420.5 226H424L424.5 227L432 228L432.5 229H435L435.5 230H439L439.5 231H442L442.5 232H446L446.5 233H450L450.5 234L458 235L458.5 236H461L461.5 237H465L465.5 238H469L469.5 239L477 240L477.5 241H480L480.5 242H484L484.5 243H488L488.5 244H492L492.5 245L493.5 244H496L496.5 243H498L498.5 242H500L500.5 241H502L502.5 240H504L504.5 239H506L508.5 237H510L509 229.5L507 227V224.5L506 224V222.5L505 222V220.5L504 220V218.5L503 218V216.5L502 216L501 212.5L498 210V208.5L492 203V201.5L491 200.5H489.5L485 195.5H483.5L479 191.5H477.5L477 190.5H475.5L475 189.5H473.5L473 188.5H471.5L469 186.5L463.5 185.5L463 184.5H459.5L459 183.5H455.5L455 182.5H449.5L449 181.5H423.5L423 182.5H417.5L417 183.5L409.5 184.5L409 185.5H406.5L406 186.5H403.5L403 187.5H400.5L400 188.5L394.5 189.5L394 190.5H392.5L392 191.5H390.5L390 192.5H388.5L388 193.5H386.5L386 194.5H384.5L384 195.5H381.5L380.5 196.5ZM332 89.5H329.5L329 90.5H327.5L327 91.5H325.5L325 92.5L321.5 93.5L319 96.5L315.5 97.5L314 99.5H312.5L311 101.5H309.5L308 103.5H306.5L305 105.5H303.5L302 107.5H300.5L299 109.5H297.5L296 111.5H294.5L293 113.5H291.5L289 116.5H287.5L285 119.5H283.5L281 122.5H279.5L276 126.5H274.5L271 130.5H269.5L264 136.5H262.5L257 142.5H255.5L247 151.5H245.5L215.5 181.5V183L206.5 191.5V193L200.5 198.5V200L196.5 203.5V205L192.5 208.5V210L189.5 212.5V315L190 313.5L192 312V310.5L193 310V308.5L194 308L195 304.5L197 303L198 299.5L202 295V293.5L203 293L204 289.5L208 285L209 281.5L211 280V278.5L213 277V275.5L215 274V272.5L217 271V269.5L219 268V266.5L221 265V263.5L223 262V260.5L225 259V257.5L228 255V253.5L231 251V249.5L233 248V246.5L236 244V242.5L240 239V237.5L243 235V233.5L248 229V227.5L254 222V220.5L263 212V210.5L287.5 186H289L295.5 179H297L301.5 174H303L306.5 170H308L311.5 166H313L315.5 163H317L319.5 160H321L322.5 158H324L325.5 156H327L328.5 154H330L332 152V89.5ZM369.5 81.5V131H372L372.5 130H374L376.5 128L382 127L384.5 125H387L387.5 124H390L390.5 123H393L393.5 122H396L396.5 121H399L399.5 120H403L403.5 119H407L407.5 118H412L412.5 117H417L417.5 116H423L423.5 115H430L430.5 114H439L439.5 113H466L466.5 114H473V110.5L472 109.5H470.5L470 108.5H467.5L467 107.5L459.5 106.5L459 105.5H456.5L456 104.5H452.5L452 103.5L444.5 102.5L444 101.5H441.5L441 100.5L433.5 99.5L433 98.5H430.5L430 97.5L422.5 96.5L422 95.5H419.5L419 94.5H415.5L415 93.5H412.5L412 92.5H408.5L408 91.5H404.5L404 90.5L396.5 89.5L396 88.5H393.5L393 87.5L385.5 86.5L385 85.5H382.5L382 84.5H378.5L378 83.5H374.5L374 82.5H371.5L371 81.5H369.5ZM559 89.5L557 88V86.5L549 78.5H547.5L540 70.5H538.5L534 65.5H532.5L530 62.5H528.5L527 60.5H525.5L524 58.5H522.5L518 54.5H516.5L516 53.5L512.5 52.5L511 50.5H509.5L509 49.5H507.5L507 48.5H505.5L505 47.5H503.5L503 46.5H501.5L499 44.5H496.5L494 42.5H491.5L491 41.5H488.5L488 40.5H485.5L485 39.5H482.5L482 38.5H479.5L479 37.5H476.5L476 36.5H472.5L472 35.5H467.5L467 34.5H462.5L462 33.5H456.5L456 32.5H445.5L445 31.5H422.5L422 32.5H412.5L412 33.5H406.5L406 34.5L394.5 35.5L394 36.5H390.5L390 37.5H386.5L386 38.5H381.5L381 39.5H378.5L378 40.5H375.5L375 41.5H372.5L372 42.5H369.5L369 43.5H366.5L366 44.5H363.5L363 45.5L357.5 46.5L357 47.5H355.5L353 49.5H350.5L348 51.5H345.5L345 52.5H343.5L343 53.5H341.5L341 54.5H339.5L337 56.5H334.5L334 57.5H332.5L332 58.5H330.5L330 59.5H328.5L328 60.5H326.5L326 61.5H324.5L324 62.5L320.5 63.5L319 65.5L315.5 66.5L314 68.5L310.5 69.5L309 71.5L305.5 72.5L304 74.5L300.5 75.5L296 79.5L292.5 80.5L291 82.5H289.5L288 84.5H286.5L285 86.5H283.5L281 89.5H279.5L278 91.5H276.5L274 94.5H272.5L271 96.5H269.5L266 100.5H264.5L262 103.5H260.5L256 108.5H254.5L251 112.5H249.5L245 117.5H243.5L238 123.5H236.5L225 135.5H223.5L200.5 158.5V160L192.5 167.5V169L184.5 176.5V178L179.5 182.5V184L175.5 187.5V189L170.5 193.5V195L167.5 197.5V199L164.5 201.5V203L162.5 205.5V359L160.5 359.5L160 358.5H158.5L156 356.5H153.5L152 355V199.5L155 197V195.5L158 193V191.5L161 189V187.5L165 184V182.5L170 178V176.5L175 172V170.5L183 163V161.5L193 152V150.5L217.5 126H219L230.5 114H232L237.5 108H239L243.5 103H245L249.5 98H251L253.5 95H255L256.5 93H258L260.5 90H262L265.5 86H267L269.5 83H271L272.5 81H274L276.5 78H278L279.5 76H281L282.5 74H284L285.5 72H287V70.5H283.5L283 71.5H276.5L276 72.5H269.5L269 73.5H264.5L264 74.5H259.5L259 75.5H255.5L255 76.5H251.5L251 77.5L243.5 78.5L243 79.5H240.5L240 80.5H237.5L237 81.5H234.5L234 82.5H231.5L231 83.5L225.5 84.5L223 86.5H220.5L220 87.5H218.5L216 89.5H213.5L213 90.5H211.5L211 91.5H209.5L209 92.5H207.5L207 93.5H205.5L205 94.5H203.5L203 95.5H201.5L201 96.5H199.5L199 97.5L195.5 98.5L194 100.5H192.5L192 101.5H190.5L190 102.5L186.5 103.5L185 105.5L181.5 106.5L180 108.5H178.5L177 110.5L173.5 111.5L172 113.5H170.5L169 115.5H167.5L166 117.5H164.5L163 119.5H161.5L159 122.5H157.5L156 124.5H154.5L151 128.5H149.5L147 131.5H145.5L143 134.5H141.5L137 139.5H135.5L131 144.5H129.5L124 150.5H122.5L112 161.5H110.5L92.5 179.5V181L83.5 189.5V191L75.5 198.5V200L69.5 205.5V207L65.5 210.5V212L61.5 215.5V217L57.5 220.5V222L54.5 224.5V226L50.5 229.5V231L47.5 233.5V235L45.5 236.5V238L42.5 240.5V242L40.5 243.5V245L38.5 246.5V248L37 249.5L35 249V148.5L38 146V144.5L41 142V140.5L45 137V135.5L49 132V130.5L58 122V120.5L75.5 103H77L84.5 95H86L91.5 89H93L96.5 85H98L101.5 81H103L105.5 78H107L108.5 76H110L112.5 73H114L115.5 71H117L118.5 69H120L121.5 67H123L124.5 65H126L130.5 61L134 60L135.5 58H137L137.5 57L141 56L142.5 54H144L144.5 53H146L146.5 52L150 51L151.5 49H153L153.5 48H155L155.5 47H157L157.5 46H159L161.5 44H164L164.5 43H166L166.5 42H168L168.5 41H170L170.5 40H172L174.5 38H177L179.5 36H182L183 35L184.5 36.5V92H186L186.5 91H188L189.5 89H191L191.5 88H193L193.5 87H195L195.5 86L199 85V29.5L201 29L201.5 28H204L204.5 27H207L207.5 26H210L210.5 25H214L214.5 24H218L218.5 23H222L222.5 22H226L226.5 21H231L231.5 20H236L236.5 19H242L242.5 18H248L248.5 17H256L256.5 16H271L271.5 15H288L288.5 16H302L302.5 17H308L308.5 18H315L315.5 19L320.5 19.5V51H323L323.5 50H325L325.5 49H327L327.5 48H329L329.5 47H331L331.5 46H333L333.5 45H335L336 44L336.5 24H339L339.5 25H342L342.5 26L348 27L348.5 28H350L352.5 30H355L355.5 31H357L357.5 32H359L361.5 34L362.5 33H366L366.5 32H369L369.5 31H371L371.5 30H374L374.5 29H378L378.5 28H381V26.5H379.5L379 25.5L375.5 24.5L374 22.5H372.5L372 21.5H370.5L368 19.5H365.5L365 18.5H363.5L363 17.5H361.5L361 16.5H359.5L357 14.5L351.5 13.5L349 11.5H346.5L346 10.5H343.5L343 9.5H339.5L339 8.5H336.5L336 7.5H332.5L332 6.5H328.5L328 5.5H324.5L324 4.5H319.5L319 3.5H313.5L313 2.5H307.5L307 1.5H296.5L296 0.5H260.5L260 1.5H251.5L251 2.5H243.5L243 3.5H237.5L237 4.5H232.5L232 5.5H226.5L226 6.5H222.5L222 7.5H218.5L218 8.5L210.5 9.5L210 10.5H207.5L207 11.5H204.5L204 12.5H200.5L200 13.5H197.5L197 14.5H193.5L191 16.5H188.5L188 17.5L182.5 18.5L180 20.5H177.5L175 22.5H172.5L170 24.5H167.5L167 25.5H165.5L165 26.5H163.5L163 27.5H161.5L161 28.5H159.5L159 29.5H157.5L155 31.5H152.5L152 32.5H150.5L150 33.5H148.5L148 34.5L144.5 35.5L143 37.5H140.5L139 39.5L135.5 40.5L134 42.5L130.5 43.5L129 45.5H127.5L127 46.5H125.5L124 48.5L120.5 49.5L119 51.5H117.5L116 53.5H114.5L113 55.5H111.5L110 57.5H108.5L107 59.5H105.5L103 62.5H101.5L100 64.5H98.5L96 67.5H94.5L92 70.5H90.5L88 73.5H86.5L83 77.5H81.5L76 83.5H74.5L68 90.5H66.5L47.5 109.5V111L37.5 120.5V122L33.5 125.5V127L28.5 131.5V133L25.5 135.5V137L22.5 139.5V141L20.5 142.5V145L19.5 145.5V278L18.5 278.5V280L16.5 281.5V283L15.5 283.5V285L14.5 285.5L13.5 289L11.5 290.5V292L10.5 292.5V294L9.5 294.5V296L8.5 296.5V298L7.5 298.5V300L6.5 300.5V302L5.5 302.5V304L4.5 304.5V306L3.5 306.5V308L1.5 310.5V313L0.5 313.5V315H2L4.5 317H7L7.5 318H9L9.5 319H11L13.5 321H16L16.5 322H18L18.5 323H20L22.5 325H25L25.5 326H27L29.5 328H32L32.5 329H34L34.5 330H36L36.5 331H38L38.5 332H40L42.5 334H45L47.5 336H50L50.5 337H52L52.5 338H54L56.5 340H59L59.5 341H61L61.5 342H63L65.5 344H68L68.5 345H70L70.5 346H72L74.5 348H77L77.5 349H79L79.5 350H81L83.5 352H86L86.5 353H88L88.5 354H90L92.5 356H95L95.5 357H97L99.5 359H102L102.5 360H104L104.5 361H106L108.5 363H111L111.5 364H113L113.5 365H115L117.5 367H120L120.5 368H122L124.5 370H127L127.5 371H129L129.5 372H131L133.5 374H136L136.5 375H138L138.5 376H140L142.5 378H145L145.5 379H147L149.5 381H152L152.5 382H154L154.5 383H156L158.5 385H161L161.5 386H163L163.5 387H165L167.5 389H170L170.5 390H172L172.5 391H174L174.5 392H176L178.5 394H181L181.5 395H185L185.5 394H187L187.5 393H189L189.5 392H191L191.5 391H193L193.5 390H195L195.5 389H197L199.5 387H202L203.5 385H205L205.5 384H208L208.5 383H210L210.5 382H212L212.5 381H214L214.5 380H216L216.5 379H218L218.5 378H220L220.5 377H222L222.5 376H224L224.5 375H226L226.5 374H228L228.5 373H230L230.5 372H232L232.5 371H234L234.5 370H236L236.5 369H238L240.5 367H243L243.5 366H245L245.5 365H247L247.5 364H249L249.5 363H251L251.5 362H253L253.5 361H255L255.5 360H257L257.5 359H259L259.5 358L263 357V355.5L264 355V350.5L265 350V345.5L266 345V341.5L267 341V337.5L268 337V333.5L269 333V330.5L270 330V326.5L271 326V323.5L272 323V320.5L273 320L274 314.5L276 312L277 306.5L278 306V304.5L280 302V299.5L281 299V297.5L282 297V295.5L284 293V290.5L285 290V288.5L286 288V286.5L287 286V284.5L288 284V282.5L289 282V280.5L290 280V278.5L291 278L292 274.5L294 273L295 269.5L297 268L298 264.5L300 263L301 259.5L303 258V256.5L305 255V253.5L307 252V250.5L310 248V246.5L313 244V242.5L316 240V238.5L321 234V232.5L327 227V225.5L339.5 213H341L349.5 204H351L354.5 200H356L358.5 197H360L361.5 195H363L367.5 191L371 190L372.5 188H374L374.5 187H376L376.5 186H378L378.5 185H380L380.5 184H382L382.5 183H384L384.5 182H386L386.5 181H388L390.5 179H393L395.5 177H398L398.5 176H401L401.5 175L409 174L409.5 173H412L412.5 172H417L417.5 171H424L424.5 170H448L448.5 171H456L456.5 172H460L460.5 173H464L464.5 174H467L467.5 175L473 176L473.5 177H475L475.5 178H477L477.5 179H479L479.5 180H481L481.5 181L485 182L489.5 186H491L493.5 189H495L501.5 195.5V197L507.5 202.5V204L511.5 208.5V210L512.5 210.5V212L513.5 212.5V214L514.5 214.5V216L515.5 216.5V218L517.5 220.5V223L518.5 223.5V225L519.5 225.5V228L520.5 228.5V230L521.5 231L522.5 230H524L524.5 229H527L527.5 228H529L529.5 227H531L531.5 226H533L533.5 225H535L535.5 224H537L537.5 223H539L539.5 222H541L541.5 221H543L543.5 220H545L545.5 219H547L547.5 218H549L549.5 217H551L551.5 216H553L555.5 214H558L558.5 213H560L560.5 212H562L562.5 211H564L564.5 210H566L566.5 209H568L568.5 208H570L570.5 207H572L572.5 206H574L574.5 205H576L576.5 204H578L580.5 202H582V200.5L581 200V198.5L580 198L579 194.5L577 193V191.5L575 190V188.5L573 187V185.5L571 184V182.5L567 179V177.5L562 173V171.5L559 169V89.5ZM343 71L343.5 92L342.5 93L343.5 93.5V152L342.5 153L343.5 153.5V157L342.5 157.5V159L340.5 159.5L339 161.5H337.5L336 163.5H334.5L333 165.5H331.5L330 167.5H328.5L327 169.5H325.5L323 172.5H321.5L319 175.5H317.5L314 179.5H312.5L309 183.5H307.5L301 190.5H299.5L291 199.5H289.5L274.5 214.5V216L264.5 225.5V227L258.5 232.5V234L253.5 238.5V240L249.5 243.5V245L245.5 248.5V250L243.5 251.5V253L240.5 255.5V257L237.5 259.5V261L234.5 263.5V265L232.5 266.5V268L230.5 269.5V271L227.5 273.5L226.5 277L224.5 278.5V280L222.5 281.5V283L218.5 287.5L217.5 291L213.5 295.5V297L212.5 297.5L211.5 301L209.5 302.5L208.5 306L206.5 307.5L205.5 311L203.5 312.5V314L202.5 314.5L201.5 318L199.5 319.5V321L198.5 321.5V323L197.5 323.5V325L196.5 325.5L195.5 329L193.5 330.5V332L192.5 332.5V334L191.5 334.5V336L190.5 336.5V338L189.5 338.5V340L188.5 340.5V342L187.5 342.5V344L186.5 344.5V346L185.5 346.5V348L184.5 348.5V350L183.5 350.5V352L182.5 352.5V354L181.5 354.5L180.5 358L178.5 359.5L178 209.5L179 209V207.5L183 204V202.5L187 199V197.5L192 193V191.5L198 186V184.5L206 177V175.5L240.5 141H242L250.5 132H252L257.5 126H259L262.5 122H264L267.5 118H269L272.5 114H274L277.5 110H279L280.5 108H282L284.5 105H286L287.5 103H289L291.5 100H293L294.5 98H296L297.5 96H299L300.5 94H302L303.5 92H305L309.5 88H311L311.5 87H313L314.5 85H316L316.5 84H318L318.5 83L322 82L323.5 80H325L325.5 79L329 78L330.5 76H332L332.5 75H334L334.5 74H336L336.5 73H338L340.5 71H343ZM497.5 62H500L500.5 63H502L502.5 64L506 65L507.5 67L511 68L512.5 70H514L515.5 72H517L518.5 74H520L522.5 77H524L527.5 81H529L534.5 87H536L543.5 94.5V96L544.5 96.5L544 153.5H541.5L539 150.5H537.5L536 148.5H534.5L530 144.5L526.5 143.5L525 141.5H523.5L523 140.5H521.5L521 139.5H519.5L519 138.5H517.5L515 136.5H512.5L510 134.5H507.5L505 132.5H502.5L502 131.5H499.5L499 130.5L497 130L497.5 62ZM481.5 54.5L481 126.5H477.5L477 125.5H467.5L467 124.5H439.5L439 125.5H429.5L429 126.5H423.5L423 127.5L413.5 128.5L413 129.5H409.5L409 130.5H404.5L404 131.5H401.5L401 132.5H398.5L398 133.5H395.5L395 134.5H392.5L392 135.5H389.5L389 136.5H386.5L386 137.5L380.5 138.5L380 139.5H378.5L378 140.5H376.5L376 141.5H374.5L372 143.5H369.5L369 144.5H367.5L367 145.5H365.5L365 146.5H363.5L361 148.5L358 148L358.5 63H360L360.5 62H363L363.5 61H365L365.5 60H368L368.5 59H371L371.5 58H374L376.5 56H380L380.5 55L386 54L386.5 53H390L390.5 52H395L395.5 51H399L399.5 50H404L404.5 49H410L410.5 48H418L418.5 47H448L448.5 48H456L456.5 49H462L462.5 50H466L466.5 51H470L470.5 52H474L474.5 53H478L478.5 54L481.5 54.5Z" fill="black" stroke="black" stroke-linejoin="round"/>
</svg>
