<svg width="77" height="48" viewBox="0 0 77 48" fill="none" xmlns="http://www.w3.org/2000/svg">
<path d="M2.92594 37V24.24V16.08H7.12594L7.00594 22.48H7.72594C8.09927 20.9067 8.5926 19.6133 9.20594 18.6C9.84594 17.5867 10.6593 16.8267 11.6459 16.32C12.6326 15.8133 13.7793 15.56 15.0859 15.56C17.4593 15.56 19.2593 16.4 20.4859 18.08C21.7393 19.76 22.3659 22.36 22.3659 25.88V37H17.2859V26.4C17.2859 24.1333 16.9393 22.48 16.2459 21.44C15.5793 20.3733 14.5793 19.84 13.2459 19.84C12.1259 19.84 11.1793 20.2 10.4059 20.92C9.6326 21.6133 9.0326 22.5467 8.60594 23.72C8.20594 24.8667 7.9926 26.1333 7.96594 27.52V37H2.92594ZM23.4916 44.84C23.2516 44.84 23.0116 44.8133 22.7716 44.76C22.5316 44.7333 22.2649 44.6933 21.9716 44.64L21.5716 40.24C22.9582 40.3467 23.9582 40.2 24.5716 39.8C25.1849 39.4267 25.4916 38.56 25.4916 37.2V16.08H30.5716V37.2C30.5716 38.5067 30.4116 39.64 30.0916 40.6C29.7982 41.56 29.3582 42.3467 28.7716 42.96C28.1849 43.6 27.4382 44.0667 26.5316 44.36C25.6516 44.68 24.6382 44.84 23.4916 44.84ZM28.0116 12.8C26.9982 12.8 26.2116 12.5867 25.6516 12.16C25.1182 11.7067 24.8516 11.0667 24.8516 10.24C24.8516 9.41333 25.1182 8.78667 25.6516 8.36C26.2116 7.90667 26.9982 7.68 28.0116 7.68C29.0782 7.68 29.8782 7.89333 30.4116 8.32C30.9449 8.74667 31.2116 9.38667 31.2116 10.24C31.2116 11.0667 30.9316 11.7067 30.3716 12.16C29.8382 12.5867 29.0516 12.8 28.0116 12.8ZM33.8291 37V16.08H38.8691V37H33.8291ZM36.3491 12.8C35.3357 12.8 34.5491 12.5867 33.9891 12.16C33.4557 11.7067 33.1891 11.0667 33.1891 10.24C33.1891 9.41333 33.4557 8.78667 33.9891 8.36C34.5491 7.90667 35.3357 7.68 36.3491 7.68C37.4157 7.68 38.2157 7.89333 38.7491 8.32C39.2824 8.74667 39.5491 9.38667 39.5491 10.24C39.5491 11.0667 39.2691 11.7067 38.7091 12.16C38.1757 12.5867 37.3891 12.8 36.3491 12.8ZM42.1322 37V8.6H47.0922V37H42.1322ZM55.1972 37.52C54.0505 37.52 53.0239 37.3067 52.1172 36.88C51.2105 36.4267 50.4905 35.76 49.9572 34.88C49.4505 34 49.1972 32.9067 49.1972 31.6C49.1972 30.5067 49.3972 29.5733 49.7972 28.8C50.2239 28.0267 50.8505 27.4 51.6772 26.92C52.5039 26.4133 53.5305 26 54.7572 25.68C55.9839 25.3333 57.4239 25.04 59.0772 24.8C59.9839 24.6667 60.7172 24.5333 61.2772 24.4C61.8639 24.2667 62.2905 24.0667 62.5572 23.8C62.8239 23.5067 62.9572 23.08 62.9572 22.52C62.9572 21.6933 62.6639 20.9867 62.0772 20.4C61.5172 19.7867 60.5972 19.48 59.3172 19.48C58.5439 19.48 57.7972 19.6133 57.0772 19.88C56.3839 20.1467 55.7839 20.5733 55.2772 21.16C54.7705 21.72 54.4239 22.4667 54.2372 23.4L49.7172 22C50.0105 20.9333 50.4372 20.0133 50.9972 19.24C51.5572 18.44 52.2505 17.76 53.0772 17.2C53.9039 16.64 54.8505 16.2267 55.9172 15.96C56.9839 15.6933 58.1572 15.56 59.4372 15.56C61.3839 15.56 62.9839 15.88 64.2372 16.52C65.4905 17.1333 66.4239 18.1067 67.0372 19.44C67.6505 20.7467 67.9572 22.44 67.9572 24.52V28.44C67.9572 29.3467 67.9705 30.2933 67.9972 31.28C68.0505 32.24 68.1039 33.2133 68.1572 34.2C68.2372 35.16 68.3305 36.0933 68.4372 37H63.9172C63.8105 36.2533 63.7172 35.4533 63.6372 34.6C63.5572 33.7467 63.4905 32.88 63.4372 32H62.7972C62.4239 33.0133 61.8905 33.9467 61.1972 34.8C60.5039 35.6267 59.6505 36.2933 58.6372 36.8C57.6505 37.28 56.5039 37.52 55.1972 37.52ZM57.1972 33.8C57.7305 33.8 58.2639 33.7067 58.7972 33.52C59.3572 33.3333 59.9039 33.0533 60.4372 32.68C60.9705 32.3067 61.4639 31.8533 61.9172 31.32C62.3705 30.76 62.7572 30.1067 63.0772 29.36L62.9972 25.8L63.9572 25.96C63.5039 26.3333 62.9439 26.6267 62.2772 26.84C61.6105 27.0533 60.9039 27.2133 60.1572 27.32C59.4372 27.4267 58.7039 27.56 57.9572 27.72C57.2372 27.8533 56.5839 28.04 55.9972 28.28C55.4105 28.4933 54.9439 28.8133 54.5972 29.24C54.2505 29.64 54.0772 30.2 54.0772 30.92C54.0772 31.8267 54.3705 32.5333 54.9572 33.04C55.5439 33.5467 56.2905 33.8 57.1972 33.8Z" fill="white"/>
<path d="M72.5603 37.48C71.467 37.48 70.6403 37.24 70.0803 36.76C69.5203 36.28 69.2403 35.5333 69.2403 34.52C69.2403 33.48 69.5203 32.72 70.0803 32.24C70.6403 31.76 71.467 31.52 72.5603 31.52C73.707 31.52 74.5603 31.76 75.1203 32.24C75.707 32.72 76.0003 33.48 76.0003 34.52C76.0003 36.4933 74.8536 37.48 72.5603 37.48Z" fill="#1F170D"/>
</svg>
