<svg xmlns="http://www.w3.org/2000/svg" width="193" height="183" viewBox="0 0 193 183"><defs><clipPath id="cl_5"><rect width="192.8291" height="183"/></clipPath></defs><g clip-path="url(#cl_5)"><path fill="#F46F2D" transform="scale(0.178711 0.178711)" d="M75.9185 515.623C74.8795 269.318 274.143 69.0252 520.474 68.77C766.805 68.5148 966.483 268.395 965.954 514.701C965.947 518.183 965.898 521.666 965.809 525.147C961.668 686.709 870.244 833.324 726.982 908.153C583.719 982.981 411.144 974.258 276.159 885.364C271.939 882.586 267.767 879.735 263.644 876.814C148.734 795.398 79.1475 664.4 76.024 523.615C75.9649 520.951 75.9298 518.287 75.9185 515.623Z"/><path fill="#058552" transform="scale(0.178711 0.178711)" d="M76.024 523.615C97.7144 525.394 123.117 525.29 144.987 525.555C188.291 525.898 231.597 525.962 274.901 525.745L623.712 525.254L857.756 525.518L929.469 525.746C938.678 525.743 957.03 526.161 965.809 525.147C961.668 686.709 870.244 833.324 726.982 908.153C583.719 982.981 411.144 974.258 276.159 885.364C271.939 882.586 267.767 879.735 263.644 876.814C148.734 795.398 79.1475 664.4 76.024 523.615Z"/><path transform="scale(0.178711 0.178711)" d="M711.641 568.911C715.007 568.455 723.914 566.969 724.29 572.999C724.556 577.285 722.567 584.281 721.492 588.659C714 619.178 698.958 647.325 677.746 670.513C628.19 725.541 577.27 735.898 505.833 742.808C486.734 744.655 459.21 746.974 440.876 751.456C404.416 760.369 366.389 780.182 337.334 803.876C316.995 820.462 297.263 841.8 284.636 864.999C281.754 870.295 278.406 879.465 276.159 885.364C271.939 882.586 267.767 879.735 263.644 876.814C282.753 824.141 329.542 780.165 379.71 757.307C404.743 745.902 429.186 739.074 456.106 734.352C534.161 720.661 623.73 722.409 673.542 649.428C682.137 636.837 688.915 624.59 694.419 610.222C699.242 597.634 703.291 579.319 711.641 568.911Z"/><path transform="scale(0.178711 0.178711)" d="M264.04 513.543C271.108 453.587 286.804 407.013 327.267 361.555C372.545 311.082 435.899 280.495 503.586 276.431C572.381 272.246 639.94 296.086 690.87 342.517C741.416 387.693 768.855 444.996 772.625 512.398L866.665 512.502L858.351 464.931C855.245 447.264 852.249 432.855 852.711 414.849L860.802 412.328C876.428 441.251 876.118 480.827 881.247 513.009C897.97 512.956 914.693 513.018 931.415 513.196C942.436 513.353 955.126 513.382 965.954 514.701C965.947 518.183 965.898 521.666 965.809 525.147C957.03 526.161 938.678 525.743 929.469 525.746L857.756 525.518L623.712 525.254L274.901 525.745C231.597 525.962 188.291 525.898 144.987 525.555C123.117 525.29 97.7144 525.394 76.024 523.615C75.9649 520.951 75.9298 518.287 75.9185 515.623C85.7152 515.052 97.4508 515.096 107.312 514.935L158.709 514.062C159.029 491.147 161.924 467.563 165.515 444.959C166.645 437.844 167.71 430.583 170.141 423.792C171.971 418.681 179.552 411.092 185.366 413.81C187.479 416.631 184.327 431.925 183.852 435.856C180.769 461.364 174.803 487.835 172.846 513.357L264.04 513.543Z"/><path fill="#F46F2D" transform="scale(0.178711 0.178711)" d="M502.334 292.863C508.267 291.967 526.738 292.591 532.822 292.916C577.141 295.288 617.676 306.921 654.658 331.982C705.45 366.402 736.532 419.701 752.587 478.018C755.702 489.332 757.893 500.515 760.158 511.985L538.154 512.2L369.214 512.076C339.476 512.062 309.616 512.7 279.913 512.222C281.228 498.02 282.786 484.06 286.307 470.216C312.247 368.24 399.741 301.89 502.334 292.863Z"/><path transform="scale(0.178711 0.178711)" d="M319.528 225.628C323.016 228.49 325.149 235.475 326.572 239.673C311.943 253.62 301.035 259.002 285.76 270.611C275.927 278.23 266.917 286.857 258.877 296.349C245.621 311.729 234.999 328.256 224.123 345.287C218.885 353.489 207.667 378.412 199.483 381.873C196.978 380.53 193.726 379.036 192.027 376.81C190.732 375.113 190.588 373.058 191.035 371.049C191.912 367.104 194.61 360.875 196.396 357.266C219.445 310.696 277.701 255.148 319.528 225.628Z"/><path transform="scale(0.178711 0.178711)" d="M720.763 226.948C722.496 227.301 724.26 227.748 725.919 228.375C760.323 241.387 827.643 324.031 842.602 358.083C844.702 362.864 849.121 373.319 847.109 378.543L846.113 378.984C836.617 377.343 833.53 373.432 828.878 365.263C825.487 359.31 822.151 353.126 818.714 347.199C801.075 317.319 778.914 290.35 753.019 267.251C743.593 258.827 725.799 245.212 718.34 235.849C719.279 232.998 720.01 229.87 720.763 226.948Z"/><path transform="scale(0.178711 0.178711)" d="M516.432 95.7639C521.238 97.4987 523.351 98.6168 527.267 101.921C535.047 133.118 530.245 174.996 530.026 207.999C523.42 207.726 521.348 207.169 515.714 204.144C513.66 183.648 514.031 159.812 514.343 139.106C514.544 125.782 514.971 108.828 516.432 95.7639Z"/><path transform="scale(0.178711 0.178711)" d="M623.289 180.448C643.746 184.891 682.964 197.098 698.186 211.243C698.207 214.825 698.43 217.714 698.733 221.288C676.54 215.878 641.299 204.444 622.741 190.845C622.79 187.037 622.935 184.24 623.289 180.448Z"/><path transform="scale(0.178711 0.178711)" d="M415.645 181.381C419.418 181.215 426.252 184.349 423.812 189.019C421.796 192.878 415.677 196.856 411.793 198.987C397.128 207.033 379.681 212.022 363.985 217.391C359.429 218.373 357.179 213.771 355.067 210.539C369.181 196.501 396.775 187.994 415.645 181.381Z"/></g></svg>