<svg width="1440" height="629" viewBox="0 0 1440 629" fill="none" xmlns="http://www.w3.org/2000/svg">
<path d="M194.5 523.01C204.5 528.783 204.5 543.217 194.5 548.99L59.5 626.933C49.5 632.706 37 625.489 37 613.942L37 458.058C37 446.511 49.5 439.294 59.5 445.067L194.5 523.01Z" fill="#FBF0D8"/>
<path opacity="0.1" d="M157.068 406.646C159.377 399.303 168.77 397.213 173.975 402.885L242.189 477.218C247.394 482.89 244.507 492.069 236.993 493.741L138.511 515.65C130.997 517.321 124.491 510.232 126.8 502.888L157.068 406.646Z" fill="#1FA08F"/>
<path d="M1410.71 382.857C1418.88 374.692 1432.82 378.427 1435.81 389.581L1466.5 504.131C1469.49 515.285 1459.28 525.491 1448.13 522.502L1333.58 491.809C1322.43 488.82 1318.69 474.878 1326.86 466.713L1410.71 382.857Z" fill="#E5E8D1"/>
<mask id="path-4-inside-1_462_1131" fill="white">
<path fill-rule="evenodd" clip-rule="evenodd" d="M1358.35 -70.9798C1387.95 -73.6319 1414.02 -53.5129 1419.78 -24.9827C1428.33 -31.496 1438.72 -35.7521 1450.11 -36.7727C1482.22 -39.6499 1510.18 -15.7256 1512.55 16.6638C1514.86 48.263 1491.97 76.2448 1461.03 80.2634C1461.48 111.181 1437.97 137.831 1407.02 140.604C1379.82 143.042 1355.59 126.244 1347.38 101.36C1338.99 107.519 1328.92 111.536 1317.89 112.523C1285.78 115.4 1257.82 91.4762 1255.45 59.0866C1253.19 28.2364 1274.96 0.83326 1304.78 -4.18777C1304.66 -5.15812 1304.57 -6.13675 1304.5 -7.12332C1302.12 -39.5128 1326.24 -68.1023 1358.35 -70.9798Z"/>
</mask>
<path d="M1358.35 -70.9798L1358.26 -71.9758V-71.9758L1358.35 -70.9798ZM1419.78 -24.9827L1418.8 -24.7849L1419.11 -23.2197L1420.38 -24.1871L1419.78 -24.9827ZM1450.11 -36.7727L1450.02 -37.7687V-37.7687L1450.11 -36.7727ZM1512.55 16.6638L1513.55 16.5908V16.5908L1512.55 16.6638ZM1461.03 80.2634L1460.9 79.2717L1460.02 79.3866L1460.03 80.2781L1461.03 80.2634ZM1407.02 140.604L1407.11 141.6V141.6L1407.02 140.604ZM1347.38 101.36L1348.33 101.047L1347.9 99.7391L1346.79 100.554L1347.38 101.36ZM1317.89 112.523L1317.98 113.519H1317.98L1317.89 112.523ZM1255.45 59.0866L1254.45 59.1597H1254.45L1255.45 59.0866ZM1304.78 -4.18777L1304.95 -3.20165L1305.89 -3.36041L1305.78 -4.30959L1304.78 -4.18777ZM1304.5 -7.12332L1303.5 -7.05031V-7.0503L1304.5 -7.12332ZM1358.35 -70.9798L1358.44 -69.9838C1387.52 -72.5895 1413.14 -52.8258 1418.8 -24.7849L1419.78 -24.9827L1420.76 -25.1804C1414.9 -54.2001 1388.38 -74.6744 1358.26 -71.9758L1358.35 -70.9798ZM1419.78 -24.9827L1420.38 -24.1871C1428.79 -30.5908 1439 -34.7735 1450.2 -35.7767L1450.11 -36.7727L1450.02 -37.7687C1438.43 -36.7306 1427.87 -32.4012 1419.17 -25.7783L1419.78 -24.9827ZM1450.11 -36.7727L1450.2 -35.7767C1481.75 -38.6034 1509.22 -15.1024 1511.55 16.7368L1512.55 16.6638L1513.55 16.5908C1511.14 -16.3488 1482.7 -40.6964 1450.02 -37.7687L1450.11 -36.7727ZM1512.55 16.6638L1511.55 16.7368C1513.83 47.8104 1491.31 75.3219 1460.9 79.2717L1461.03 80.2634L1461.16 81.2551C1492.63 77.1677 1515.9 48.7155 1513.55 16.5908L1512.55 16.6638ZM1461.03 80.2634L1460.03 80.2781C1460.48 110.683 1437.35 136.883 1406.93 139.608L1407.02 140.604L1407.11 141.6C1438.59 138.78 1462.49 111.68 1462.03 80.2487L1461.03 80.2634ZM1407.02 140.604L1406.93 139.608C1380.2 142.003 1356.4 125.502 1348.33 101.047L1347.38 101.36L1346.43 101.673C1354.79 126.986 1379.43 144.08 1407.11 141.6L1407.02 140.604ZM1347.38 101.36L1346.79 100.554C1338.54 106.609 1328.64 110.556 1317.8 111.527L1317.89 112.523L1317.98 113.519C1329.19 112.515 1339.44 108.429 1347.98 102.166L1347.38 101.36ZM1317.89 112.523L1317.8 111.527C1286.25 114.354 1258.78 90.8529 1256.45 59.0136L1255.45 59.0866L1254.45 59.1597C1256.87 92.0994 1285.3 116.447 1317.98 113.519L1317.89 112.523ZM1255.45 59.0866L1256.45 59.0136C1254.23 28.6771 1275.64 1.73357 1304.95 -3.20165L1304.78 -4.18777L1304.62 -5.1739C1274.28 -0.0670395 1252.16 27.7956 1254.45 59.1597L1255.45 59.0866ZM1304.78 -4.18777L1305.78 -4.30959C1305.66 -5.26425 1305.56 -6.2266 1305.49 -7.19633L1304.5 -7.12332L1303.5 -7.0503C1303.57 -6.0469 1303.67 -5.05199 1303.79 -4.06595L1304.78 -4.18777ZM1304.5 -7.12332L1305.49 -7.19633C1303.16 -39.0479 1326.88 -67.1556 1358.44 -69.9838L1358.35 -70.9798L1358.26 -71.9758C1325.6 -69.049 1301.09 -39.9776 1303.5 -7.05031L1304.5 -7.12332Z" fill="#BDCFCD" mask="url(#path-4-inside-1_462_1131)"/>
<mask id="path-6-inside-2_462_1131" fill="white">
<path fill-rule="evenodd" clip-rule="evenodd" d="M529.221 414.018C534.977 385.488 561.046 365.368 590.648 368.02C622.763 370.898 646.875 399.487 644.504 431.877C644.431 432.863 644.334 433.842 644.215 434.812C674.039 439.833 695.807 467.236 693.549 498.087C691.177 530.476 663.221 554.4 631.106 551.523C620.084 550.536 610.005 546.519 601.615 540.36C593.405 565.244 569.184 582.042 541.977 579.604C511.03 576.831 487.515 550.181 487.969 519.263C457.03 515.244 434.137 487.263 436.45 455.664C438.821 423.274 466.778 399.35 498.892 402.227C510.284 403.248 520.668 407.505 529.221 414.018Z"/>
</mask>
<path d="M529.221 414.018L528.616 414.814L529.886 415.781L530.202 414.216L529.221 414.018ZM590.648 368.02L590.737 367.024V367.024L590.648 368.02ZM644.504 431.877L645.501 431.95V431.95L644.504 431.877ZM644.215 434.812L643.222 434.69L643.106 435.64L644.049 435.798L644.215 434.812ZM693.549 498.087L694.546 498.16V498.16L693.549 498.087ZM631.106 551.523L631.017 552.519V552.519L631.106 551.523ZM601.615 540.36L602.207 539.554L601.097 538.739L600.665 540.047L601.615 540.36ZM541.977 579.604L541.888 580.6V580.6L541.977 579.604ZM487.969 519.263L488.968 519.278L488.982 518.387L488.097 518.272L487.969 519.263ZM436.45 455.664L435.453 455.591L435.453 455.591L436.45 455.664ZM498.892 402.227L498.982 401.231H498.982L498.892 402.227ZM529.221 414.018L530.202 414.216C535.858 386.175 561.475 366.41 590.559 369.016L590.648 368.02L590.737 367.024C560.617 364.326 534.095 384.8 528.241 413.821L529.221 414.018ZM590.648 368.02L590.559 369.016C622.123 371.844 645.838 399.952 643.506 431.804L644.504 431.877L645.501 431.95C647.912 399.022 623.402 369.951 590.737 367.024L590.648 368.02ZM644.504 431.877L643.506 431.804C643.435 432.773 643.339 433.735 643.222 434.69L644.215 434.812L645.207 434.934C645.328 433.949 645.428 432.954 645.501 431.95L644.504 431.877ZM644.215 434.812L644.049 435.798C673.364 440.733 694.772 467.677 692.551 498.014L693.549 498.087L694.546 498.16C696.842 466.795 674.715 438.933 644.381 433.826L644.215 434.812ZM693.549 498.087L692.551 498.014C690.22 529.853 662.747 553.354 631.195 550.527L631.106 551.523L631.017 552.519C663.695 555.447 692.134 531.099 694.546 498.16L693.549 498.087ZM631.106 551.523L631.195 550.527C620.362 549.556 610.455 545.609 602.207 539.554L601.615 540.36L601.023 541.166C609.554 547.429 619.806 551.515 631.017 552.519L631.106 551.523ZM601.615 540.36L600.665 540.047C592.596 564.502 568.797 581.003 542.067 578.608L541.977 579.604L541.888 580.6C569.57 583.08 594.213 565.986 602.565 540.673L601.615 540.36ZM541.977 579.604L542.067 578.608C511.65 575.883 488.523 549.683 488.968 519.278L487.969 519.263L486.969 519.249C486.508 550.68 510.41 577.78 541.888 580.6L541.977 579.604ZM487.969 519.263L488.097 518.272C457.688 514.322 435.172 486.81 437.447 455.737L436.45 455.664L435.453 455.591C433.101 487.715 456.371 516.167 487.84 520.255L487.969 519.263ZM436.45 455.664L437.447 455.737C439.778 423.898 467.252 400.396 498.803 403.223L498.892 402.227L498.982 401.231C466.304 398.304 437.864 422.651 435.453 455.591L436.45 455.664ZM498.892 402.227L498.803 403.223C510 404.226 520.206 408.41 528.616 414.814L529.221 414.018L529.827 413.223C521.13 406.6 510.568 402.269 498.982 401.231L498.892 402.227Z" fill="#BDCFCD" mask="url(#path-6-inside-2_462_1131)"/>
<mask id="path-8-inside-3_462_1131" fill="white">
<path fill-rule="evenodd" clip-rule="evenodd" d="M212.447 62.497C231.704 61.1339 249.074 73.0689 255.192 90.4169C261.066 86.2476 268.163 83.5835 275.965 83.0312C298.695 81.4221 318.801 98.3426 320.87 120.823C322.841 142.236 307.739 160.969 286.657 164.091C286.753 164.765 286.834 165.445 286.898 166.131C288.967 188.611 272.219 208.14 249.488 209.749C228.535 211.232 209.813 196.971 205.392 177.124C199.407 181.536 192.098 184.365 184.035 184.935C161.305 186.545 141.2 169.625 139.13 147.144C137.111 125.212 153.004 106.091 174.889 103.678C174.195 82.2393 190.542 64.0477 212.447 62.497Z"/>
</mask>
<path d="M212.447 62.497L212.377 61.4995L212.377 61.4995L212.447 62.497ZM255.192 90.4169L254.249 90.7495L254.69 91.9997L255.771 91.2324L255.192 90.4169ZM275.965 83.0312L275.894 82.0337H275.894L275.965 83.0312ZM320.87 120.823L321.866 120.732V120.731L320.87 120.823ZM286.657 164.091L286.511 163.102L285.527 163.247L285.667 164.232L286.657 164.091ZM286.898 166.131L287.893 166.039V166.039L286.898 166.131ZM249.488 209.749L249.559 210.746H249.559L249.488 209.749ZM205.392 177.124L206.368 176.907L206.034 175.408L204.798 176.319L205.392 177.124ZM184.035 184.935L184.106 185.933H184.106L184.035 184.935ZM139.13 147.144L138.134 147.236L138.134 147.236L139.13 147.144ZM174.889 103.678L174.998 104.672L175.918 104.57L175.888 103.645L174.889 103.678ZM212.447 62.497L212.518 63.4945C231.317 62.1637 248.278 73.8182 254.249 90.7495L255.192 90.4169L256.135 90.0843C249.87 72.3195 232.09 60.104 212.377 61.4995L212.447 62.497ZM255.192 90.4169L255.771 91.2324C261.498 87.1675 268.419 84.5679 276.036 84.0287L275.965 83.0312L275.894 82.0337C267.907 82.5992 260.634 85.3277 254.614 89.6015L255.192 90.4169ZM275.965 83.0312L276.036 84.0287C298.232 82.4574 317.855 98.9845 319.874 120.915L320.87 120.823L321.866 120.731C319.746 97.7007 299.159 80.3868 275.894 82.0337L275.965 83.0312ZM320.87 120.823L319.874 120.915C321.796 141.788 307.078 160.056 286.511 163.102L286.657 164.091L286.804 165.08C308.4 161.882 323.887 142.683 321.866 120.732L320.87 120.823ZM286.657 164.091L285.667 164.232C285.761 164.891 285.84 165.555 285.902 166.222L286.898 166.131L287.893 166.039C287.829 165.336 287.746 164.64 287.647 163.95L286.657 164.091ZM286.898 166.131L285.902 166.222C287.919 188.136 271.598 207.181 249.418 208.751L249.488 209.749L249.559 210.746C272.839 209.098 290.015 189.087 287.893 166.039L286.898 166.131ZM249.488 209.749L249.418 208.751C228.96 210.2 210.682 196.272 206.368 176.907L205.392 177.124L204.416 177.341C208.944 197.671 228.111 212.265 249.559 210.746L249.488 209.749ZM205.392 177.124L204.798 176.319C198.963 180.621 191.835 183.381 183.965 183.938L184.035 184.935L184.106 185.933C192.361 185.349 199.851 182.452 205.985 177.929L205.392 177.124ZM184.035 184.935L183.965 183.938C161.768 185.509 142.145 168.983 140.126 147.053L139.13 147.144L138.134 147.236C140.255 170.267 160.841 187.58 184.106 185.933L184.035 184.935ZM139.13 147.144L140.126 147.053C138.157 125.673 153.646 107.026 174.998 104.672L174.889 103.678L174.779 102.684C152.363 105.156 136.064 124.751 138.134 147.236L139.13 147.144ZM174.889 103.678L175.888 103.645C175.212 82.7501 191.143 65.0076 212.518 63.4945L212.447 62.497L212.377 61.4995C189.942 63.0877 173.178 81.7284 173.889 103.71L174.889 103.678Z" fill="#BDCFCD" mask="url(#path-8-inside-3_462_1131)"/>
<path d="M506.5 203L520.14 239.86L557 253.5L520.14 267.14L506.5 304L492.86 267.14L456 253.5L492.86 239.86L506.5 203Z" fill="#F9DAAF"/>
<path d="M1377 164L1388.34 192.466L1419 203L1388.34 213.534L1377 242L1365.66 213.534L1335 203L1365.66 192.466L1377 164Z" fill="#F9DAAF"/>
<mask id="path-12-inside-4_462_1131" fill="white">
<path fill-rule="evenodd" clip-rule="evenodd" d="M751.352 8.82883C780.954 6.17666 807.022 26.2956 812.778 54.8259C821.331 48.3126 831.716 44.0565 843.108 43.0359C875.222 40.1586 903.179 64.0829 905.55 96.4724C907.863 128.072 884.97 156.053 854.031 160.072C854.484 190.99 830.969 217.639 800.022 220.412C772.816 222.849 748.595 206.052 740.384 181.169C731.995 187.328 721.916 191.344 710.894 192.332C678.779 195.209 650.823 171.285 648.451 138.895C646.193 108.045 667.96 80.6419 697.784 75.6208C697.665 74.6505 697.569 73.6718 697.496 72.6853C695.125 40.2959 719.237 11.7063 751.352 8.82883Z"/>
</mask>
<path d="M751.352 8.82883L751.263 7.83282V7.83282L751.352 8.82883ZM812.778 54.8259L811.797 55.0237L812.113 56.5889L813.383 55.6215L812.778 54.8259ZM843.108 43.0359L843.018 42.0399V42.0399L843.108 43.0359ZM905.55 96.4724L906.547 96.3994V96.3994L905.55 96.4724ZM854.031 160.072L853.902 159.08L853.018 159.195L853.031 160.087L854.031 160.072ZM800.022 220.412L800.111 221.408V221.408L800.022 220.412ZM740.384 181.169L741.334 180.855L740.902 179.548L739.792 180.363L740.384 181.169ZM710.894 192.332L710.983 193.328H710.983L710.894 192.332ZM648.451 138.895L647.454 138.968H647.454L648.451 138.895ZM697.784 75.6208L697.95 76.6069L698.894 76.4482L698.777 75.499L697.784 75.6208ZM697.496 72.6853L696.499 72.7583V72.7583L697.496 72.6853ZM751.352 8.82883L751.441 9.82484C780.524 7.21912 806.141 26.9828 811.797 55.0237L812.778 54.8259L813.758 54.6281C807.904 25.6085 781.383 5.1342 751.263 7.83282L751.352 8.82883ZM812.778 54.8259L813.383 55.6215C821.793 49.2178 832 45.0351 843.197 44.0319L843.108 43.0359L843.018 42.0399C831.432 43.078 820.869 47.4074 812.172 54.0303L812.778 54.8259ZM843.108 43.0359L843.197 44.0319C874.748 41.2051 902.222 64.7062 904.553 96.5454L905.55 96.4724L906.547 96.3994C904.136 63.4597 875.696 39.1122 843.018 42.0399L843.108 43.0359ZM905.55 96.4724L904.553 96.5454C906.828 127.619 884.312 155.131 853.902 159.08L854.031 160.072L854.159 161.064C885.628 156.976 908.899 128.524 906.547 96.3994L905.55 96.4724ZM854.031 160.072L853.031 160.087C853.476 190.491 830.349 216.691 799.933 219.416L800.022 220.412L800.111 221.408C831.59 218.588 855.491 191.489 855.03 160.057L854.031 160.072ZM800.022 220.412L799.933 219.416C773.202 221.811 749.403 205.31 741.334 180.855L740.384 181.169L739.434 181.482C747.786 206.794 772.429 223.888 800.111 221.408L800.022 220.412ZM740.384 181.169L739.792 180.363C731.544 186.418 721.638 190.365 710.805 191.336L710.894 192.332L710.983 193.328C722.193 192.323 732.445 188.238 740.976 181.975L740.384 181.169ZM710.894 192.332L710.805 191.336C679.253 194.163 651.78 170.662 649.449 138.822L648.451 138.895L647.454 138.968C649.866 171.908 678.305 196.256 710.983 193.328L710.894 192.332ZM648.451 138.895L649.449 138.822C647.228 108.486 668.636 81.5422 697.95 76.6069L697.784 75.6208L697.618 74.6347C667.284 79.7416 645.158 107.604 647.454 138.968L648.451 138.895ZM697.784 75.6208L698.777 75.499C698.66 74.5443 698.565 73.582 698.494 72.6123L697.496 72.6853L696.499 72.7583C696.573 73.7617 696.671 74.7566 696.792 75.7426L697.784 75.6208ZM697.496 72.6853L698.494 72.6123C696.162 40.7607 719.877 12.653 751.441 9.82484L751.352 8.82883L751.263 7.83282C718.598 10.7596 694.088 39.831 696.499 72.7583L697.496 72.6853Z" fill="#BDCFCD" mask="url(#path-12-inside-4_462_1131)"/>
</svg>
